<svg width="27" height="19" viewBox="0 0 27 19" fill="none" xmlns="http://www.w3.org/2000/svg">
<path d="M2.78458 0.890625H19.9788C20.4728 0.890625 20.9466 1.08084 21.2959 1.41941C21.6452 1.75799 21.8415 2.2172 21.8415 2.69601C21.8415 3.17483 21.6452 3.63404 21.2959 3.97262C20.9466 4.31119 20.4728 4.5014 19.9788 4.5014H2.78458C2.29056 4.5014 1.81677 4.31119 1.46745 3.97262C1.11812 3.63404 0.921875 3.17483 0.921875 2.69601C0.921875 2.2172 1.11812 1.75799 1.46745 1.41941C1.81677 1.08084 2.29056 0.890625 2.78458 0.890625ZM7.79955 15.3337H25.137C25.631 15.3337 26.1048 15.5239 26.4541 15.8625C26.8035 16.2011 26.9997 16.6603 26.9997 17.1391C26.9997 17.6179 26.8035 18.0772 26.4541 18.4157C26.1048 18.7543 25.631 18.9445 25.137 18.9445H7.79955C7.30553 18.9445 6.83174 18.7543 6.48242 18.4157C6.13309 18.0772 5.93685 17.6179 5.93685 17.1391C5.93685 16.6603 6.13309 16.2011 6.48242 15.8625C6.83174 15.5239 7.30553 15.3337 7.79955 15.3337ZM2.78458 8.11218H25.137C25.631 8.11218 26.1048 8.30239 26.4541 8.64097C26.8035 8.97954 26.9997 9.43875 26.9997 9.91757C26.9997 10.3964 26.8035 10.8556 26.4541 11.1942C26.1048 11.5328 25.631 11.723 25.137 11.723H2.78458C2.29056 11.723 1.81677 11.5328 1.46745 11.1942C1.11812 10.8556 0.921875 10.3964 0.921875 9.91757C0.921875 9.43875 1.11812 8.97954 1.46745 8.64097C1.81677 8.30239 2.29056 8.11218 2.78458 8.11218Z" fill="black"/>
</svg>
