<svg width="34" height="34" viewBox="0 0 34 34" fill="none" xmlns="http://www.w3.org/2000/svg">
<path d="M16.3117 8.66506H9.83667C9.15242 8.66486 8.48468 8.87523 7.92412 9.26762C7.36357 9.66002 6.93735 10.2154 6.70333 10.8584L0.436666 28.0951C0.214999 28.7034 0.366666 29.3851 0.823333 29.8434L1.31167 30.3317L12.015 19.6284C12.0133 19.5851 12.0017 19.5417 12.0017 19.4984C12.0017 19.0039 12.1483 18.5206 12.423 18.1095C12.6977 17.6984 13.0881 17.3779 13.545 17.1887C14.0018 16.9995 14.5044 16.95 14.9894 17.0464C15.4743 17.1429 15.9198 17.381 16.2694 17.7306C16.6191 18.0803 16.8572 18.5257 16.9536 19.0107C17.0501 19.4956 17.0006 19.9983 16.8114 20.4551C16.6221 20.9119 16.3017 21.3024 15.8906 21.5771C15.4795 21.8518 14.9961 21.9984 14.5017 21.9984C14.4583 21.9984 14.415 21.9867 14.3717 21.9851L3.66833 32.6884L4.15667 33.1767C4.38075 33.4014 4.66448 33.5572 4.9743 33.6257C5.28412 33.6942 5.60708 33.6726 5.905 33.5634L23.1417 27.2951C23.7847 27.0611 24.34 26.6348 24.7324 26.0743C25.1248 25.5137 25.3352 24.846 25.335 24.1617V17.6867L28.6667 14.3567L19.6433 5.3334L16.3117 8.66506ZM30.2333 12.1017L21.9 3.7684L25.4333 0.233398L33.7667 8.56673L30.2333 12.1017Z" fill="white"/>
</svg>
