<svg width="34" height="30" viewBox="0 0 34 30" fill="none" xmlns="http://www.w3.org/2000/svg">
<path d="M32 6.66667H22C21.558 6.66667 21.1341 6.84226 20.8215 7.15482C20.5089 7.46738 20.3333 7.89131 20.3333 8.33333V13.3333H17V1.66667C17 1.22464 16.8244 0.800716 16.5118 0.488155C16.1993 0.175595 15.7754 0 15.3333 0H2C1.55797 0 1.13405 0.175595 0.821489 0.488155C0.508929 0.800716 0.333334 1.22464 0.333334 1.66667V28.3333C0.333334 28.7754 0.508929 29.1993 0.821489 29.5118C1.13405 29.8244 1.55797 30 2 30H32C32.442 30 32.866 29.8244 33.1785 29.5118C33.4911 29.1993 33.6667 28.7754 33.6667 28.3333V8.33333C33.6667 7.89131 33.4911 7.46738 33.1785 7.15482C32.866 6.84226 32.442 6.66667 32 6.66667ZM10.3333 5H13.6667V8.33333H10.3333V5ZM7 21.6667H3.66667V18.3333H7V21.6667ZM7 15H3.66667V11.6667H7V15ZM7 8.33333H3.66667V5H7V8.33333ZM13.6667 21.6667H10.3333V18.3333H13.6667V21.6667ZM13.6667 15H10.3333V11.6667H13.6667V15ZM28.6667 21.6667H25.3333V18.3333H28.6667V21.6667ZM28.6667 15H25.3333V11.6667H28.6667V15Z" fill="white"/>
</svg>
