<svg width="17" height="17" viewBox="0 0 17 17" fill="none" xmlns="http://www.w3.org/2000/svg">
<path d="M16.5975 16.5975C16.3398 16.8552 15.9903 17 15.6258 17C15.2613 17 14.9118 16.8552 14.6541 16.5975L8.5 10.4434L2.34589 16.5975C2.08818 16.8552 1.73865 17 1.37419 17C1.00973 17 0.660203 16.8552 0.402491 16.5975C0.14478 16.3398 0 15.9903 0 15.6258C0 15.2613 0.14478 14.9118 0.402491 14.6541L6.5566 8.5L0.402491 2.34589C0.14478 2.08818 1.54445e-07 1.73865 1.54445e-07 1.37419C1.54445e-07 1.00973 0.14478 0.660203 0.402491 0.402492C0.660203 0.144781 1.00973 0 1.37419 0C1.73865 0 2.08818 0.144781 2.34589 0.402492L8.5 6.5566L14.6541 0.402492C14.9118 0.144781 15.2613 0 15.6258 0C15.9903 0 16.3398 0.144781 16.5975 0.402492C16.8552 0.660203 17 1.00973 17 1.37419C17 1.73865 16.8552 2.08818 16.5975 2.34589L10.4434 8.5L16.5975 14.6541C16.8552 14.9118 17 15.2613 17 15.6258C17 15.9903 16.8552 16.3398 16.5975 16.5975Z" fill="black"/>
</svg>
