<svg width="808" height="35" viewBox="0 0 808 35" fill="none" xmlns="http://www.w3.org/2000/svg">
<path fill-rule="evenodd" clip-rule="evenodd" d="M14.114 24.7955C16.8012 29.2014 21.7297 32.1575 27.2148 32.1575C35.3193 32.1575 39.7807 25.1634 39.7807 25.1634L40.355 27.0265C36.6029 31.9063 29.8999 34.846 22.4006 34.846C13.7665 34.846 6.32013 30.7272 2.89384 24.7874C1.6038 22.5502 0.883667 20.0513 0.883667 17.4194C0.883667 7.79506 10.5161 -0.00653076 22.4003 -0.00653076C30.7972 -0.00653076 37.5578 3.59011 41.1067 8.80232L27.0175 17.2392L35.0582 4.89254C32.7578 3.44577 29.9355 2.09099 27.0175 2.09099C18.7687 2.09099 11.9746 8.97453 11.9746 17.2231C11.9746 19.9868 12.7595 22.5836 14.114 24.7955ZM51.839 24.7905C51.7968 25.0719 51.7757 25.3561 51.7758 25.6407C51.7758 28.7718 54.3144 31.3107 57.4458 31.3107C60.5773 31.3107 63.1155 28.7721 63.1155 25.6407C63.1157 25.3551 63.0944 25.0699 63.052 24.7874C62.6419 22.0627 60.2883 19.971 57.4455 19.971C54.6031 19.971 52.2491 22.0627 51.839 24.7905ZM75.6957 34.2795L72.8777 24.7874L68.6793 10.6459C68.6793 10.6459 66.0267 3.42285 57.6561 6.46816C49.2856 9.51378 47.398 10.6459 47.398 10.6459H58.743L61.4355 19.648C59.3643 17.8184 56.333 16.6643 52.9556 16.6643C47.0053 16.6643 42.1292 20.247 41.685 24.7874C41.6633 25.0182 41.6522 25.2443 41.6522 25.4719C41.6522 30.3366 46.7126 34.2795 52.9556 34.2795C58.1734 34.2795 62.5657 31.5251 63.8673 27.7798L65.8108 34.2795H75.6957ZM104.482 24.7876V34.2797H94.3111V13.4247C94.3111 11.8901 93.067 10.6461 91.5324 10.6461C90.3869 10.6458 89.3586 11.3485 88.9427 12.4159V34.2797H78.9603V10.6461H73.1385C73.1385 10.6461 81.2375 5.73956 84.0458 5.73956C86.7074 5.73956 88.6773 7.78443 88.9235 10.3893C89.6776 9.98257 90.4304 9.56012 91.1737 9.14307C94.291 7.39379 97.239 5.73956 99.3969 5.73956C102.158 5.73956 104.405 7.93992 104.482 10.6832V24.7876ZM121.566 29.4661L120.151 24.7876L115.874 10.6457C116.106 8.80156 117.925 7.01935 119.832 7.01935C121.759 7.01935 123.345 8.47417 123.553 10.3456L127.779 24.7876L128.982 28.8999C128.999 29.0418 129.007 29.1858 129.007 29.3323C129.007 31.3998 127.332 33.0755 125.264 33.0755C123.241 33.0755 121.593 31.4713 121.566 29.4661ZM136.337 24.7894C134.411 30.6301 128.91 34.8462 122.423 34.8462C115.937 34.8462 110.435 30.6304 108.508 24.7876C108.021 23.3067 107.773 21.7574 107.775 20.1983C107.775 12.1083 114.333 5.5506 122.423 5.5506C130.513 5.5506 137.072 12.1083 137.072 20.1983C137.072 21.8017 136.814 23.3455 136.337 24.7894ZM153.178 34.2797V24.7876V12.4159C153.594 11.3485 154.622 10.6458 155.768 10.6461C157.302 10.6461 158.546 11.8901 158.546 13.4247V34.2797H168.717V10.6832C168.641 7.93992 166.394 5.73956 163.632 5.73956C161.474 5.73956 158.527 7.3934 155.411 9.14244C154.667 9.5597 153.914 9.98237 153.159 10.3893C152.913 7.78443 150.943 5.73956 148.281 5.73956C145.472 5.73956 137.613 10.6461 137.613 10.6461H143.195V34.2797H153.178Z" fill="#ABAFC7"/>
<path fill-rule="evenodd" clip-rule="evenodd" d="M289.162 26.2234C287.039 26.2234 285.164 27.8202 285.164 30.1823C285.164 32.5397 287.039 34.1381 289.162 34.1381C291.293 34.1381 293.165 32.5397 293.165 30.1823C293.165 27.8202 291.292 26.2234 289.162 26.2234ZM289.166 26.8612C291.038 26.8612 292.398 28.2651 292.398 30.1823C292.398 32.0941 291.038 33.4979 289.166 33.4979C287.296 33.4979 285.935 32.0964 285.935 30.1823C285.935 28.2651 287.296 26.8612 289.166 26.8612ZM288.316 32.5218V30.3526L288.32 30.3542V30.3518H289.001C289.465 30.3518 289.681 30.4996 289.804 30.9048C289.869 31.1361 289.901 31.3868 289.934 31.6332C289.976 31.9547 290.017 32.2689 290.126 32.5234H290.955C290.824 32.373 290.743 31.7997 290.682 31.3705C290.672 31.3024 290.663 31.238 290.654 31.1794C290.571 30.5191 290.422 30.1582 290.018 30.0936V30.0734C290.484 30.0119 290.846 29.5881 290.846 29.0529C290.846 28.1842 290.377 27.7385 289.357 27.7385H287.615V32.5218H288.316ZM289.185 29.7345C289.866 29.7345 290.06 29.3721 290.06 29.0524C290.06 28.6744 289.866 28.3757 289.185 28.3757H288.316V29.7361H289.185V29.7345Z" fill="#ABAFC7"/>
<path fill-rule="evenodd" clip-rule="evenodd" d="M234.049 0.18042V33.4483H252.512V26.0143H241.87V19.4654H252.512L252.512 12.3303L261.909 22.891L252.512 33.4485H262.127L266.696 28.2787L271.306 33.4485H281.263L271.782 22.8467L281.133 12.3303H271.564L267.084 17.4605L262.427 12.3303H252.512L252.512 12.3301H241.87V7.59575H252.512V0.18042H234.049Z" fill="#ABAFC7"/>
<path fill-rule="evenodd" clip-rule="evenodd" d="M226.257 0.181946V13.7954H226.171C224.447 11.8136 222.291 11.1229 219.792 11.1229C214.672 11.1229 210.814 14.6066 209.46 19.2087C207.915 14.1368 203.932 11.0281 198.027 11.0281C193.231 11.0281 189.444 13.1802 187.466 16.6879V12.3293H177.554V7.5965H188.373V0.181946H168.717V33.4483H177.554V19.4654H186.361C186.09 20.5407 185.954 21.6457 185.958 22.7546C185.958 29.6908 191.258 34.5652 198.026 34.5652C203.714 34.5652 207.466 31.8919 209.449 27.0254H201.876C200.852 28.4899 200.074 28.9224 198.026 28.9224C195.653 28.9224 193.604 26.8504 193.604 24.3973H209.024C209.693 29.9078 213.986 34.6593 219.879 34.6593C222.421 34.6593 224.748 33.4094 226.17 31.2977H226.256V33.4529H234.047V0.181946H226.257ZM193.85 19.5649C194.342 17.4509 195.981 16.0696 198.026 16.0696C200.279 16.0696 201.834 17.4082 202.243 19.5649H193.85ZM216.874 22.9172C216.874 25.7109 218.658 28.3857 221.529 28.3857C224.673 28.3857 226.031 25.7467 226.031 22.9172C226.031 19.9321 224.748 17.0613 221.529 17.0613C218.427 17.0613 216.874 19.9305 216.874 22.9172Z" fill="#ABAFC7"/>
<path d="M327.107 21.5878C324.806 30.8202 315.456 36.4364 306.224 34.135C296.996 31.8336 291.379 22.4838 293.681 13.2535C295.981 4.02101 305.33 -1.59676 314.559 0.704625C323.791 3.00601 329.408 12.3569 327.107 21.5878H327.107Z" fill="#ABAFC7"/>
<path fill-rule="evenodd" clip-rule="evenodd" d="M317.991 14.9654C318.334 12.6727 316.588 11.4401 314.201 10.6179L314.976 7.51205L313.085 7.0409L312.331 10.0649C311.828 9.94117 311.323 9.82235 310.817 9.70844L311.576 6.66451L309.686 6.19336L308.912 9.29813C308.501 9.20444 308.097 9.11182 307.705 9.01436L307.707 9.00467L305.1 8.35367L304.597 10.3729C304.597 10.3729 305.999 10.6944 305.97 10.7143C306.735 10.9054 306.874 11.4121 306.851 11.8138L305.969 15.3521C306.021 15.3655 306.09 15.3854 306.165 15.4151L305.965 15.3655L304.729 20.3221C304.635 20.5547 304.398 20.9036 303.862 20.7711C303.882 20.7986 302.489 20.4281 302.489 20.4281L301.55 22.5927L304.01 23.2066C304.292 23.2769 304.571 23.3495 304.847 23.4213C305.018 23.4661 305.189 23.5105 305.358 23.5539L304.576 26.6953L306.464 27.1664L307.238 24.0579C307.754 24.1984 308.255 24.3271 308.745 24.4494L307.973 27.5428L309.863 28.014L310.646 24.8785C313.87 25.4886 316.294 25.2425 317.314 22.3273C318.136 19.9796 317.273 18.6254 315.577 17.7417C316.812 17.4564 317.743 16.6438 317.991 14.9654ZM313.671 21.0221C313.135 23.1771 309.76 22.285 308.218 21.8775C308.081 21.8411 307.957 21.8085 307.852 21.7824L308.89 17.6206C309.02 17.6529 309.178 17.6884 309.357 17.7286C310.953 18.0871 314.22 18.821 313.671 21.0221ZM309.676 15.7973C310.962 16.1405 313.767 16.8892 314.256 14.9321V14.9315C314.755 12.9291 312.028 12.3255 310.696 12.0307C310.547 11.9976 310.414 11.9683 310.307 11.9414L309.365 15.7161C309.454 15.7382 309.559 15.7661 309.676 15.7973Z" fill="white"/>
<path fill-rule="evenodd" clip-rule="evenodd" d="M343.659 10.6147C345.057 10.6147 346.264 10.8651 347.278 11.3567C348.298 11.8532 349.139 12.5219 349.813 13.363C350.479 14.2084 350.974 15.1965 351.294 16.3288C351.612 17.465 351.771 18.6852 351.771 19.9915C351.771 21.9999 351.404 23.8953 350.661 25.683C349.918 27.4734 348.911 29.0268 347.629 30.3515C346.349 31.6745 344.837 32.7169 343.093 33.4875C341.353 34.2585 339.46 34.6441 337.428 34.6441C337.165 34.6441 336.703 34.6365 336.05 34.6231C335.398 34.6096 334.648 34.5423 333.808 34.4292C332.905 34.3003 332.009 34.1245 331.125 33.9026C330.199 33.6791 329.299 33.3578 328.441 32.9442L335.986 1.24062L342.744 0.193848L340.043 11.4439C340.604 11.19 341.187 10.986 341.785 10.8344C342.398 10.6853 343.028 10.6115 343.659 10.6147H343.659ZM337.991 29.2832C339.009 29.2832 339.967 29.0328 340.869 28.5417C341.775 28.0464 342.57 27.371 343.205 26.5569C343.869 25.7082 344.391 24.7577 344.752 23.7424C345.13 22.6928 345.322 21.5853 345.319 20.4696C345.319 19.0739 345.086 17.9873 344.622 17.1995C344.157 16.4161 343.297 16.0219 342.048 16.0219C341.639 16.0219 341.112 16.1 340.458 16.2395C339.802 16.3875 339.215 16.695 338.689 17.1575L335.812 29.1049C335.986 29.1356 336.139 29.1647 336.27 29.1922C336.398 29.2218 336.539 29.2428 336.681 29.2573C336.83 29.274 337.001 29.2826 337.207 29.2826L337.99 29.2832H337.991ZM352.325 34.0379H358.779L364.274 11.1011H357.776L352.325 34.0379ZM361.92 8.3065C361.04 8.31381 360.181 8.03069 359.478 7.50097C358.747 6.96681 358.385 6.14458 358.385 5.03643C358.385 4.42689 358.509 3.85504 358.755 3.3155C358.992 2.79285 359.326 2.31929 359.738 1.91927C360.151 1.52519 360.63 1.20742 361.154 0.980735C361.699 0.747767 362.286 0.629367 362.879 0.632889C363.78 0.632889 364.592 0.901043 365.32 1.43843C366.044 1.9785 366.409 2.80073 366.409 3.90297C366.412 4.49792 366.286 5.08643 366.037 5.62712C365.802 6.15028 365.469 6.62405 365.057 7.02335C364.645 7.41795 364.166 7.73498 363.641 7.9592C363.102 8.19504 362.53 8.3065 361.92 8.3065ZM376.691 4.33892L369.931 5.38623L365.656 23.4387C365.307 24.9211 365.105 26.3297 365.045 27.6694C364.988 29.0064 365.194 30.1926 365.656 31.2211C366.123 32.2538 366.905 33.0702 368.011 33.6668C369.119 34.2591 370.673 34.5568 372.679 34.5568C374.073 34.5568 375.28 34.4443 376.299 34.2095C377.261 33.9945 378.207 33.7184 379.134 33.383L378.651 28.4103C378.005 28.639 377.343 28.8208 376.67 28.9542C376.015 29.0855 375.336 29.1518 374.64 29.1518C373.794 29.1518 373.15 29.0338 372.699 28.7996C372.247 28.5697 371.936 28.2439 371.762 27.8212C371.588 27.3996 371.513 26.8988 371.546 26.3157C371.574 25.7347 371.674 25.1101 371.851 24.4418L373.767 16.4188H380.964L382.271 11.0998H375.031L376.691 4.33892ZM381.988 24.879C381.988 22.9028 382.308 21.0403 382.946 19.2957C383.584 17.55 384.503 16.0234 385.696 14.7139C386.884 13.4108 388.332 12.3775 390.037 11.6194C391.732 10.8655 393.631 10.4854 395.724 10.4854C397.034 10.4854 398.205 10.6092 399.235 10.8574C400.268 11.1078 401.203 11.4314 402.049 11.8374L399.824 16.899C399.23 16.6605 398.627 16.4496 398.014 16.2668C397.389 16.0746 396.627 15.982 395.725 15.982C393.571 15.982 391.868 16.725 390.6 18.2047C389.337 19.686 388.701 21.68 388.701 24.1817C388.701 25.664 389.022 26.8621 389.663 27.7791C390.302 28.6961 391.482 29.1527 393.195 29.1527C394.04 29.1527 394.856 29.0644 395.637 28.8921C396.424 28.7177 397.12 28.498 397.732 28.2384L398.214 33.427C397.331 33.7658 396.428 34.0506 395.511 34.28C394.52 34.5223 393.342 34.6472 391.976 34.6472C390.173 34.6472 388.646 34.3839 387.398 33.8637C386.149 33.3366 385.117 32.636 384.303 31.7487C383.486 30.8591 382.899 29.8199 382.536 28.6283C382.173 27.4367 381.987 26.1837 381.987 24.879H381.988ZM406.646 33.9462C407.782 34.4109 409.12 34.6457 410.661 34.6457C412.783 34.6457 414.653 34.2015 416.264 33.3146C417.879 32.4283 419.223 31.2878 420.298 29.8932C421.374 28.4965 422.19 26.9242 422.74 25.1849C423.289 23.4382 423.565 21.6903 423.565 19.9489C423.565 18.5548 423.378 17.2803 422.998 16.135C422.622 14.9843 422.061 13.9919 421.323 13.1465C420.578 12.3055 419.634 11.648 418.489 11.1844C417.338 10.7197 416.007 10.4844 414.495 10.4844C412.433 10.4844 410.598 10.9292 409.003 11.8133C407.407 12.7034 406.05 13.8449 404.95 15.2412C403.843 16.6352 403.005 18.2043 402.441 19.9489C401.873 21.6919 401.593 23.4387 401.593 25.1855C401.593 26.5785 401.776 27.8498 402.157 28.9978C402.537 30.1463 403.093 31.143 403.836 31.9841C404.578 32.8295 405.515 33.4821 406.646 33.9462ZM413.886 15.9825C412.929 15.9825 412.083 16.2598 411.359 16.8085C410.632 17.3636 410.022 18.062 409.53 18.9031C409.032 19.7485 408.664 20.6703 408.415 21.6724C408.167 22.6766 408.046 23.627 408.046 24.5279C408.046 25.9833 408.281 27.1179 408.742 27.9331C409.21 28.744 410.051 29.1527 411.272 29.1527C412.232 29.1527 413.074 28.8765 413.802 28.3224C414.525 27.7715 415.136 27.0732 415.632 26.2294C416.126 25.3894 416.498 24.4643 416.747 23.4601C416.991 22.4591 417.116 21.5044 417.116 20.6041C417.116 19.1524 416.882 18.0162 416.416 17.2015C415.952 16.3901 415.107 15.9819 413.886 15.9819V15.9825ZM424.14 34.0379H430.599L436.092 11.1011H429.591L424.14 34.0379ZM433.735 8.30651C432.856 8.31394 431.998 8.03078 431.296 7.50097C430.568 6.96681 430.203 6.14458 430.203 5.03643C430.203 4.42689 430.329 3.85505 430.574 3.31551C430.81 2.79223 431.144 2.31846 431.556 1.91928C431.97 1.52505 432.45 1.20728 432.974 0.980738C433.517 0.747724 434.102 0.629305 434.693 0.632892C435.596 0.632892 436.411 0.901045 437.137 1.43843C437.864 1.97851 438.23 2.80074 438.23 3.90297C438.23 4.51466 438.1 5.08866 437.856 5.62712C437.612 6.16558 437.284 6.6292 436.878 7.02335C436.465 7.41702 435.986 7.73393 435.462 7.9592C434.921 8.19505 434.349 8.30651 433.735 8.30651ZM442.376 11.6411C441.781 11.8285 441.234 12.0008 440.744 12.144L435.465 34.0341H441.965L446.195 16.2875C447.042 16.1147 447.903 16.026 448.767 16.0226C449.639 16.0226 450.283 16.19 450.709 16.5233C451.123 16.8517 451.408 17.3156 451.513 17.8334C451.633 18.3735 451.639 18.9986 451.536 19.7073C451.434 20.4223 451.296 21.1546 451.121 21.9112L448.243 34.0357H454.74L457.709 21.6511C458.549 18.2216 458.325 15.517 457.031 13.5403C455.735 11.5636 453.389 10.5723 449.985 10.5723C448.827 10.5723 447.784 10.6229 446.87 10.7268C445.955 10.8286 445.123 10.9605 444.386 11.122C443.708 11.2628 443.037 11.436 442.376 11.6411Z" fill="#ABAFC7"/>
<path fill-rule="evenodd" clip-rule="evenodd" d="M490.657 34.3893H480.841V16.6443H490.657V34.3893ZM615.998 34.3893H606.181V16.6443H615.998V34.3893Z" fill="#ABAFC7"/>
<path fill-rule="evenodd" clip-rule="evenodd" d="M458.206 0.451229H611.618C613.892 0.413935 616.009 1.60578 617.157 3.56916C618.305 5.53254 618.305 7.96229 617.157 9.92551C616.009 11.8887 613.891 13.0803 611.617 13.0427L475.196 13.0393V34.309H458.206V0.451229ZM475.197 8.74964H592.773C593.498 8.76462 594.175 8.3863 594.542 7.76064C594.909 7.13498 594.909 6.35979 594.542 5.73413C594.175 5.10848 593.498 4.73016 592.773 4.74513L475.197 4.73403V8.74964Z" fill="#ABAFC7"/>
<path fill-rule="evenodd" clip-rule="evenodd" d="M521.424 28.0201C523.429 27.1118 524.698 25.0921 524.698 22.7479C524.698 19.5536 522.185 16.6443 517.906 16.6443H497.708V34.3893H507.524V28.6638H510.734L513.691 34.3893H524.702L521.424 28.0201ZM513.125 24.3656H507.524V20.6095L513.125 20.6283C514.157 20.6283 514.993 21.4649 514.993 22.497C514.993 23.529 514.157 24.3656 513.125 24.3656ZM552.506 34.3893H530.859V16.6443H552.506V20.9237H540.674V23.535H552.506V27.8136H540.674V30.4249H552.506V34.3893ZM569.014 16.6443H559.197V34.3893H578.955V30.4249H569.014V16.6443ZM582.333 16.6443H592.149V30.4249H602.091V34.3893H582.333V16.6443Z" fill="#ABAFC7"/>
<path fill-rule="evenodd" clip-rule="evenodd" d="M631.793 26.1228C641.256 26.1228 647.238 21.2478 647.238 12.7556C647.238 3.42433 640.837 0.083252 630.402 0.083252C626.366 0.083252 621.496 0.360887 618.018 0.778522V34.0616H628.175V26.1228H631.793ZM637.222 12.8935C637.222 17.2112 635.133 20.1356 629.845 20.1356H628.174V6.38441C628.768 6.35083 629.323 6.35083 629.845 6.35083C634.852 6.35036 637.222 8.71711 637.222 12.8935ZM760.501 20.1356C765.791 20.1356 767.876 17.2112 767.876 12.8935C767.876 8.71711 765.509 6.35036 760.501 6.35083C759.98 6.35083 759.425 6.35083 758.836 6.38441V20.1356H760.501ZM762.454 26.1228C771.909 26.1228 777.895 21.2478 777.895 12.7556C777.895 3.42433 771.495 0.083252 761.059 0.083252C757.024 0.083252 752.151 0.360887 748.672 0.778522V34.0616H758.834V26.1228H762.454ZM795.842 6.62636C792.922 6.62636 791.111 7.46305 791.111 9.27264C791.111 11.4321 793.776 12.363 796.931 13.4649C801.508 15.0635 807.116 17.0222 807.116 23.6141C807.116 31.9706 800.157 34.7564 791.672 34.7564C788.332 34.7564 784.157 34.2012 781.099 33.0873L779.983 25.4261C783.043 26.9571 788.196 28.0705 791.53 28.0705C795.289 28.0705 796.822 26.9571 796.822 24.8703C796.822 22.6694 794.216 21.749 791.116 20.6542C786.568 19.0476 780.957 17.0656 780.957 10.1108C780.957 3.32217 786.521 0.083252 794.731 0.083252C799.043 0.083252 801.408 0.500887 804.054 1.05805L804.888 8.30163C802.524 7.32305 799.043 6.62636 795.842 6.62636ZM741.023 0.778522H730.866V34.0616H741.023V0.778522ZM689.677 0.778522H699.835V34.0616H689.677V0.778522ZM717.506 27.3752V0.778522H707.348V34.0616H725.717L727.246 27.3752H717.506ZM672.006 0.778522H682.164L682.163 34.0616H672.006V20.9702H661.431V34.0616H651.272V0.778522H661.431V14.0076H672.006V0.778522Z" fill="#ABAFC7"/>
</svg>
