<svg width="32" height="32" viewBox="0 0 32 32" fill="none" xmlns="http://www.w3.org/2000/svg">
<path d="M7.00001 31.9999H2.00001C1.55798 31.9999 1.13406 31.8243 0.821499 31.5118C0.508938 31.1992 0.333344 30.7753 0.333344 30.3333V16.9999C0.333344 16.5579 0.508938 16.134 0.821499 15.8214C1.13406 15.5088 1.55798 15.3333 2.00001 15.3333H7.00001C7.44204 15.3333 7.86596 15.5088 8.17852 15.8214C8.49108 16.134 8.66668 16.5579 8.66668 16.9999V30.3333C8.66668 30.7753 8.49108 31.1992 8.17852 31.5118C7.86596 31.8243 7.44204 31.9999 7.00001 31.9999ZM18.6667 31.9999H13.6667C13.2246 31.9999 12.8007 31.8243 12.4882 31.5118C12.1756 31.1992 12 30.7753 12 30.3333V1.99992C12 1.55789 12.1756 1.13397 12.4882 0.821407C12.8007 0.508847 13.2246 0.333252 13.6667 0.333252H18.6667C19.1087 0.333252 19.5326 0.508847 19.8452 0.821407C20.1577 1.13397 20.3333 1.55789 20.3333 1.99992V30.3333C20.3333 30.7753 20.1577 31.1992 19.8452 31.5118C19.5326 31.8243 19.1087 31.9999 18.6667 31.9999ZM30.3333 31.9999H25.3333C24.8913 31.9999 24.4674 31.8243 24.1548 31.5118C23.8423 31.1992 23.6667 30.7753 23.6667 30.3333V11.9999C23.6667 11.5579 23.8423 11.134 24.1548 10.8214C24.4674 10.5088 24.8913 10.3333 25.3333 10.3333H30.3333C30.7754 10.3333 31.1993 10.5088 31.5119 10.8214C31.8244 11.134 32 11.5579 32 11.9999V30.3333C32 30.7753 31.8244 31.1992 31.5119 31.5118C31.1993 31.8243 30.7754 31.9999 30.3333 31.9999Z" fill="white"/>
</svg>
