<svg width="30" height="36" viewBox="0 0 30 36" fill="none" xmlns="http://www.w3.org/2000/svg">
<path d="M16.0615 0.387229C15.753 0.165947 15.3825 0.0478535 15.0028 0.0498291C14.6232 0.0518047 14.2539 0.173748 13.9477 0.398229C10.5853 2.83473 0.333344 11.1287 0.333344 21.6667C0.333344 27.6196 3.90468 32.7456 9.01234 35.0427C8.13848 33.8129 7.66825 32.342 7.66668 30.8334C7.63551 24.9282 14.1897 18.1962 14.4683 18.0001C14.6231 17.8892 14.8087 17.8295 14.9991 17.8295C15.1895 17.8295 15.3751 17.8892 15.5298 18.0001C15.8085 18.1962 22.3333 23.4524 22.3333 30.8371C22.3333 32.4027 21.8292 33.8492 20.9895 35.0427C26.0953 32.7456 29.6667 27.6214 29.6667 21.6759C29.6667 10.9307 19.433 2.77973 16.0615 0.387229Z" fill="#4C40F7"/>
</svg>
